<?xml version="1.0" encoding="UTF-8"?>
<!DOCTYPE svg PUBLIC "-//W3C//DTD SVG 1.1//EN" "http://www.w3.org/Graphics/SVG/1.1/DTD/svg11.dtd">
<!-- Creator: CorelDRAW 2021 (64 Bit) -->
<svg xmlns="http://www.w3.org/2000/svg" xml:space="preserve" width="297mm" height="210mm" version="1.1" style="shape-rendering:geometricPrecision; text-rendering:geometricPrecision; image-rendering:optimizeQuality; fill-rule:evenodd; clip-rule:evenodd"
viewBox="0 0 29700 21000"
 xmlns:xlink="http://www.w3.org/1999/xlink"
 xmlns:xodm="http://www.corel.com/coreldraw/odm/2003">
 <defs>
  <style type="text/css">
   <![CDATA[
    .fil0 {fill:white}
   ]]>
  </style>
 </defs>
 <g id="Camada_x0020_1">
  <metadata id="CorelCorpID_0Corel-Layer"/>
  <g id="_2290295357552">
   <path class="fil0" d="M3467.99 20407.67l3825.94 1.86c-317.81,-1315.4 -1123.26,-809.52 -1399.61,-1572.24 -274.59,-757.76 457.76,-1192.46 1214.42,-1794.83 1072.9,-854.15 1233.44,-799.17 1451.18,-1655.76 220.05,-865.56 455.48,-1659.25 642.38,-2469.23l985.37 238.39 -314.43 1239.86c684.69,280.68 3190.31,645.08 4056.45,809.69 1465.49,278.49 3117.51,183.44 4666.55,207.87 472.62,7.46 1946.34,-24.99 2281.52,81.15 544,172.2 731.02,986.9 922.01,1491.18l1400.89 3424.6 3849.72 0.85c-152,-1267.16 -545.95,-989.8 -1477.21,-1423.23 -1425.02,-663.29 440.43,-3506.04 -1856.73,-7019.8 -738.77,-1130.08 -1769.13,-2065.58 -3160.76,-2703.72 -1716.68,-787.21 -3287.36,-656.02 -5310.13,-656.02 -1953.64,0 -3907.38,1.72 -5861.02,-0.07 -968.6,-0.88 -1759.26,37.04 -2473.73,476.07 -2110.79,1297.13 -1398.11,3332.54 -1639.99,4313.09 -112.23,454.97 -966.78,1291.17 -1256.31,1670.23 -213.93,280.06 -528.88,515.26 -575.3,888.62l28.79 4451.44z"/>
   <path class="fil0" d="M14039.83 7580.11c3156.34,38.11 5539.47,-279.61 8144.97,1434.53 782.51,514.84 1299.89,1038.8 1852.23,1684.4 835.88,977.04 1158.55,1937.19 1379.15,2180.05 669.91,-890.74 827.51,-2450.73 395.03,-3609.67 -428.74,-1148.84 -1367.66,-2507.31 -2254.49,-3347.45 -218.23,-206.73 -375.51,-326.97 -555.72,-570.84 -392.68,-531.36 -225.04,-1247.58 104.57,-1617.06 739.81,-829.37 2987.85,-436.72 2796.79,-1644.66 -62.55,-395.48 -416.88,-300.32 -828.68,-294.59 -374.37,5.25 -748.32,3.81 -1122.75,3.81 -746.78,-0.03 -1495.1,4.69 -2241.69,-1.56 -895.26,-7.53 -774.44,-41.5 -1591.75,671.76l-6077.66 5111.28z"/>
   <path class="fil0" d="M4165.62 1778.04c1050.72,124.81 3514.57,-260.38 4193.63,289.09 424.21,343.22 624.33,1041.6 230.9,1630.35 -482.81,722.45 -2329.64,513.24 -3515.23,514.12 -2922.72,2.19 -2650.81,1909.28 -2653.28,4503.86 0.52,1313.55 694.98,2247.91 1877.57,2438.64 370.79,-1093.33 449.82,-842.49 -139.33,-1091.41 -993.48,-419.74 -718.18,-1765.74 -720.95,-3329.67 -1.72,-3259.27 4849.08,131.09 6163.31,-2799 602.24,-1342.7 -150.31,-2558.16 -1101.12,-2952.27 -653.45,-270.84 -3553.31,-326.62 -4333.52,-157.38l-1.98 953.67z"/>
   <path class="fil0" d="M26118.7 7581.44l1021.3 19.94c566.77,-1.69 1092.32,229.27 1440.11,139.2 125.06,-482.3 59.09,-1025.31 63.33,-1524.97 9.41,-1115.74 67.5,-816.69 -1289.57,-2023.62 -286.97,-255.23 -465.72,-538 -817.19,-783.43 -955.5,585.99 -1972.63,686.45 -2497.08,915.82 -933.57,408.25 727.17,864.91 2079.1,3257.06z"/>
   <path class="fil0" d="M17056.45 20420.28l3868.26 -9.9c-94.74,-1213.67 -671.93,-1062.39 -1539.67,-1442.65 -793.49,-347.75 -410.75,-1569.34 -563.34,-2536.4l-3367.49 -24.66 1602.24 4013.61z"/>
  </g>
 </g>
</svg>
